<?xml version="1.0" encoding="UTF-8"?>
<svg width="160px" height="160px" viewBox="0 0 160 160" version="1.1" xmlns="http://www.w3.org/2000/svg" xmlns:xlink="http://www.w3.org/1999/xlink">
    <title>ant-design-seeklogo.com</title>
    <defs>
        <linearGradient x1="62.1023273%" y1="0%" x2="108.19718%" y2="37.8635764%" id="linearGradient-1">
            <stop stop-color="#4285EB" offset="0%"></stop>
            <stop stop-color="#2EC7FF" offset="100%"></stop>
        </linearGradient>
        <linearGradient x1="69.644116%" y1="0%" x2="54.0428975%" y2="108.456714%" id="linearGradient-2">
            <stop stop-color="#29CDFF" offset="0%"></stop>
            <stop stop-color="#148EFF" offset="37.8600687%"></stop>
            <stop stop-color="#0A60FF" offset="100%"></stop>
        </linearGradient>
        <linearGradient x1="69.6908165%" y1="-12.9743587%" x2="16.7228981%" y2="117.391248%" id="linearGradient-3">
            <stop stop-color="#FA816E" offset="0%"></stop>
            <stop stop-color="#F74A5C" offset="41.472606%"></stop>
            <stop stop-color="#F51D2C" offset="100%"></stop>
        </linearGradient>
        <linearGradient x1="68.1279872%" y1="-35.6905737%" x2="30.4400914%" y2="114.942679%" id="linearGradient-4">
            <stop stop-color="#FA8E7D" offset="0%"></stop>
            <stop stop-color="#F74A5C" offset="51.2635191%"></stop>
            <stop stop-color="#F51D2C" offset="100%"></stop>
        </linearGradient>
    </defs>
    <g id="Page-1" stroke="none" stroke-width="1" fill="none" fill-rule="evenodd">
        <g id="ant-design-seeklogo.com" transform="translate(-0.000000, -0.000000)" fill-rule="nonzero">
            <path d="M73.1744974,2.84650031 L2.83613074,73.1270276 C-0.945376914,76.9054255 -0.945376914,83.0081764 2.83613074,86.7865749 L73.1744974,157.067102 C76.9560051,160.845501 83.063779,160.845501 86.8452867,157.067102 L116.337159,127.599481 C119.723776,124.21565 119.723776,118.729375 116.337159,115.345545 C112.950543,111.961713 107.459753,111.961713 104.073137,115.345545 L81.715585,137.684712 C80.7743737,138.625149 79.3458939,138.625149 78.4046826,137.684712 L22.2344728,81.5606906 C21.2932616,80.6202534 21.2932616,79.1929483 22.2344728,78.2525111 L78.4046826,22.1284903 C79.3458939,21.188053 80.7743737,21.188053 81.715585,22.1284903 L104.073137,44.4676578 C107.459753,47.8514891 112.950543,47.8514891 116.337159,44.4676578 C119.723776,41.0838264 119.723776,35.5975518 116.337159,32.2137205 L86.8485374,2.74930533 C83.0515031,-0.947326712 76.9414955,-0.917400322 73.1744974,2.84650031 Z" id="Path" fill="url(#linearGradient-1)"></path>
            <path d="M73.1744974,2.84650031 L2.83613074,73.1270276 C-0.945376914,76.9054255 -0.945376914,83.0081764 2.83613074,86.7865749 L73.1744974,157.067102 C76.9560051,160.845501 83.063779,160.845501 86.8452867,157.067102 L116.337159,127.599481 C119.723776,124.21565 119.723776,118.729375 116.337159,115.345545 C112.950543,111.961713 107.459753,111.961713 104.073137,115.345545 L81.715585,137.684712 C80.7743737,138.625149 79.3458939,138.625149 78.4046826,137.684712 L22.2344728,81.5606906 C21.2932616,80.6202534 21.2932616,79.1929483 22.2344728,78.2525111 L78.4046826,22.1284903 C80.7482683,20.1081008 84.5720813,16.0158507 90.1873701,15.0587461 C94.3605524,14.347443 98.9229752,15.9130085 103.874638,19.7554429 C100.564141,16.4476634 94.8887736,10.7789509 86.8485374,2.74930533 C83.0515031,-0.947326712 76.9414955,-0.917400322 73.1744974,2.84650031 Z" id="Path" fill="url(#linearGradient-2)"></path>
            <path d="M123.14514,108.809412 C126.531757,112.193243 132.022546,112.193243 135.409162,108.809412 L157.163814,87.0726491 C160.945322,83.2942512 160.945322,77.1914997 157.164257,73.4135421 L135.21996,51.5650445 C131.825327,48.1852297 126.332794,48.1901036 122.944173,51.5759376 C119.557557,54.959769 119.557557,60.4460435 122.944173,63.8298749 L137.765472,78.6389861 C138.706684,79.5794234 138.706684,81.0067284 137.765472,81.9471657 L123.14514,96.5554746 C119.758524,99.939306 119.758524,105.42558 123.14514,108.809412 Z" id="Path" fill="url(#linearGradient-3)"></path>
            <ellipse id="Oval" fill="url(#linearGradient-4)" cx="80.361584" cy="80.308204" rx="18.991359" ry="18.9757423"></ellipse>
        </g>
    </g>
</svg>