<?xml version="1.0" encoding="UTF-8"?>
<svg width="126px" height="100px" viewBox="0 0 126 100" version="1.1" xmlns="http://www.w3.org/2000/svg" xmlns:xlink="http://www.w3.org/1999/xlink">
    <!-- Generator: Sketch 54.1 (76490) - https://sketchapp.com -->
    <title>material-ui</title>
    <desc>Created with Sketch.</desc>
    <g id="Page-1" stroke="none" stroke-width="1" fill="none" fill-rule="evenodd">
        <g id="material-ui" fill-rule="nonzero">
            <polygon id="Path" fill="#00B0FF" points="0 54.4654088 0 0 47.1698113 27.2327044 47.1698113 45.3878407 15.7232704 27.2327044 15.7232704 63.5429769"></polygon>
            <polygon id="Path" fill="#0081CB" points="47.1698113 27.2327044 94.3396226 0 94.3396226 54.4654088 62.8930818 72.6205451 47.1698113 63.5429769 78.6163522 45.3878407 78.6163522 27.2327044 47.1698113 45.3878407"></polygon>
            <polygon id="Path" fill="#00B0FF" points="47.1698113 63.5429769 47.1698113 81.6981132 78.6163522 99.8532495 78.6163522 81.6981132"></polygon>
            <path d="M78.6163522,99.8532495 L125.786164,72.6205451 L125.786164,36.3102725 L110.062893,45.3878407 L110.062893,63.5429769 L78.6163522,81.6981132 L78.6163522,99.8532495 Z M110.062893,27.2327044 L110.062893,9.07756813 L125.786164,5.68434189e-14 L125.786164,18.1551363 L110.062893,27.2327044 Z" id="Shape" fill="#0081CB"></path>
        </g>
    </g>
</svg>