<?xml version="1.0" encoding="UTF-8"?>
<svg width="161px" height="97px" viewBox="0 0 161 97" version="1.1" xmlns="http://www.w3.org/2000/svg" xmlns:xlink="http://www.w3.org/1999/xlink">
    <title>Nextjs-logo</title>
    <g id="Page-1" stroke="none" stroke-width="1" fill="none" fill-rule="evenodd">
        <g id="Nextjs-logo" transform="translate(0.202924, 0.286810)" fill="#000000" fill-rule="nonzero">
            <g id="EXT-+-Type-something">
                <path d="M37.7532594,25.0544685 L67.9307266,25.0544685 L67.9307266,27.4414925 L40.5195272,27.4414925 L40.5195272,45.4069893 L66.2961137,45.4069893 L66.2961137,47.7940133 L40.5195272,47.7940133 L40.5195272,67.5183698 L68.2450752,67.5183698 L68.2450752,69.9053937 L37.7532594,69.9053937 L37.7532594,25.0544685 Z M70.634125,25.0544685 L73.8404807,25.0544685 L88.0490381,44.7788251 L102.571945,25.0544685 L122.325464,1.80594671e-15 L89.8722596,46.851767 L106.595607,69.9053937 L103.263511,69.9053937 L88.0490381,48.9247089 L72.7716953,69.9053937 L69.5024699,69.9053937 L86.3515552,46.851767 L70.634125,25.0544685 Z M107.790132,27.4414925 L107.790132,25.0544685 L142.17987,25.0544685 L142.17987,27.4414925 L126.336699,27.4414925 L126.336699,69.9053937 L123.570432,69.9053937 L123.570432,27.4414925 L107.790132,27.4414925 Z" id="EXT"></path>
                <polygon id="Type-something" points="6.55730652e-15 25.0544685 3.4578348 25.0544685 51.1393532 96.0625471 31.4348617 69.9053937 2.89200728 28.4465553 2.76626783 69.9053937 6.55730652e-15 69.9053937"></polygon>
            </g>
            <path d="M141.901157,66.7980169 C142.473054,66.7980169 142.890202,66.3622178 142.890202,65.7990317 C142.890202,65.235845 142.473054,64.8000459 141.901157,64.8000459 C141.33599,64.8000459 140.912113,65.235845 140.912113,65.7990317 C140.912113,66.3622178 141.33599,66.7980169 141.901157,66.7980169 Z M144.619348,64.1698128 C144.619348,65.8325546 145.823695,66.9186997 147.579754,66.9186997 C149.450192,66.9186997 150.580528,65.7990317 150.580528,63.8546965 L150.580528,57.0092976 L149.073412,57.0092976 L149.073412,63.8479919 C149.073412,64.9274329 148.528429,65.5040289 147.566297,65.5040289 C146.705088,65.5040289 146.119735,64.9676605 146.099551,64.1698128 L144.619348,64.1698128 Z M152.551889,64.0826534 C152.659541,65.8124405 154.106102,66.9186997 156.259124,66.9186997 C158.560166,66.9186997 160,65.7588041 160,63.9083335 C160,62.4534346 159.17916,61.6488827 157.187615,61.1862649 L156.117832,60.9247856 C154.852931,60.6297829 154.341589,60.2342114 154.341589,59.5436377 C154.341589,58.6720389 155.135515,58.102148 156.326406,58.102148 C157.456742,58.102148 158.237213,58.65863 158.378505,59.5503418 L159.845251,59.5503418 C159.757785,57.9211235 158.317951,56.7746366 156.34659,56.7746366 C154.22721,56.7746366 152.814288,57.9211235 152.814288,59.6442064 C152.814288,61.065582 153.614944,61.910362 155.371003,62.3193428 L156.622447,62.6210497 C157.907532,62.9227571 158.4727,63.365261 158.4727,64.102767 C158.4727,64.9609564 157.584579,65.5844842 156.373504,65.5844842 C155.074962,65.5844842 154.173384,65.001184 154.045548,64.0826534 L152.551889,64.0826534 Z" id=".JS"></path>
        </g>
    </g>
</svg>