<?xml version="1.0" encoding="UTF-8"?>
<svg width="113px" height="100px" viewBox="0 0 113 100" version="1.1" xmlns="http://www.w3.org/2000/svg" xmlns:xlink="http://www.w3.org/1999/xlink">
    <!-- Generator: Sketch 54.1 (76490) - https://sketchapp.com -->
    <title>react</title>
    <desc>Created with Sketch.</desc>
    <g id="Page-1" stroke="none" stroke-width="1" fill="none" fill-rule="evenodd">
        <g id="react" fill="#61DAFB" fill-rule="nonzero">
            <path d="M112.425629,50 C112.425629,42.5629291 103.112128,35.5148741 88.8329519,31.1441648 C92.1281465,16.590389 90.6636156,5.01144165 84.2105263,1.30434783 C82.7231121,0.434782609 80.9839817,0.0228832952 79.0846682,0.0228832952 L79.0846682,5.12585812 C80.1372998,5.12585812 80.9839817,5.33180778 81.6933638,5.7208238 C84.805492,7.50572082 86.1556064,14.3020595 85.1029748,23.0434783 C84.8512586,25.194508 84.4393593,27.4599542 83.9359268,29.771167 C79.4508009,28.6727689 74.5537757,27.826087 69.4050343,27.2768879 C66.3157895,23.0434783 63.1121281,19.1990847 59.8855835,15.8352403 C67.3455378,8.90160183 74.3478261,5.10297483 79.1075515,5.10297483 L79.1075515,0 C79.1075515,0 79.1075515,0 79.1075515,0 C72.8146453,0 64.576659,4.48512586 56.2471396,12.2654462 C47.9176201,4.53089245 39.6796339,0.0915331808 33.3867277,0.0915331808 L33.3867277,5.19450801 C38.1235698,5.19450801 45.1487414,8.97025172 52.6086957,15.8581236 C49.4050343,19.221968 46.201373,23.0434783 43.1578947,27.2768879 C37.98627,27.826087 33.0892449,28.6727689 28.604119,29.7940503 C28.0778032,27.5057208 27.6887872,25.2860412 27.4141876,23.1578947 C26.3386728,14.416476 27.6659039,7.6201373 30.7551487,5.81235698 C31.4416476,5.40045767 32.3340961,5.2173913 33.3867277,5.2173913 L33.3867277,0.114416476 C33.3867277,0.114416476 33.3867277,0.114416476 33.3867277,0.114416476 C31.4645309,0.114416476 29.7254005,0.526315789 28.215103,1.39588101 C21.784897,5.10297483 20.3432494,16.6590389 23.6613272,31.1670481 C9.42791762,35.5606407 0.160183066,42.5858124 0.160183066,50 C0.160183066,57.4370709 9.47368421,64.4851259 23.7528604,68.8558352 C20.4576659,83.409611 21.9221968,94.9885584 28.375286,98.6956522 C29.8627002,99.5652174 31.6018307,99.9771167 33.5240275,99.9771167 C39.8169336,99.9771167 48.0549199,95.4919908 56.3844394,87.7116705 C64.7139588,95.4462243 72.9519451,99.8855835 79.2448513,99.8855835 C81.1670481,99.8855835 82.9061785,99.4736842 84.416476,98.604119 C90.8466819,94.8970252 92.2883295,83.3409611 88.9702517,68.8329519 C103.157895,64.4622426 112.425629,57.4141876 112.425629,50 Z M82.6315789,34.7368421 C81.784897,37.6887872 80.7322654,40.7322654 79.5423341,43.7757437 C78.604119,41.9450801 77.6201373,40.1144165 76.5446224,38.2837529 C75.4919908,36.4530892 74.3707094,34.6681922 73.2494279,32.9290618 C76.4988558,33.409611 79.6338673,34.0045767 82.6315789,34.7368421 Z M72.1510297,59.1075515 C70.3661327,62.1967963 68.5354691,65.1258581 66.6361556,67.8489703 C63.2265446,68.1464531 59.771167,68.3066362 56.2929062,68.3066362 C52.8375286,68.3066362 49.382151,68.1464531 45.9954233,67.8718535 C44.0961098,65.1487414 42.2425629,62.2425629 40.4576659,59.1762014 C38.7185355,56.1784897 37.1395881,53.1350114 35.6979405,50.0686499 C37.1167048,47.0022883 38.7185355,43.9359268 40.4347826,40.9382151 C42.2196796,37.8489703 44.0503432,34.9199085 45.9496568,32.1967963 C49.3592677,31.8993135 52.8146453,31.7391304 56.2929062,31.7391304 C59.7482838,31.7391304 63.2036613,31.8993135 66.590389,32.173913 C68.4897025,34.8970252 70.3432494,37.8032037 72.1281465,40.8695652 C73.8672769,43.8672769 75.4462243,46.9107551 76.8878719,49.9771167 C75.4462243,53.0434783 73.8672769,56.1098398 72.1510297,59.1075515 Z M79.5423341,56.1327231 C80.778032,59.1990847 81.8306636,62.2654462 82.7002288,65.2402746 C79.7025172,65.97254 76.5446224,66.590389 73.2723112,67.0709382 C74.3935927,65.3089245 75.5148741,63.5011442 76.5675057,61.6475973 C77.6201373,59.8169336 78.604119,57.9633867 79.5423341,56.1327231 Z M56.3386728,80.5491991 C54.2105263,78.3524027 52.0823799,75.9038902 49.9771167,73.2265446 C52.0366133,73.3180778 54.1418764,73.3867277 56.2700229,73.3867277 C58.4210526,73.3867277 60.5491991,73.3409611 62.6315789,73.2265446 C60.5720824,75.9038902 58.4439359,78.3524027 56.3386728,80.5491991 Z M39.3135011,67.0709382 C36.0640732,66.590389 32.9290618,65.9954233 29.9313501,65.2631579 C30.778032,62.3112128 31.8306636,59.2677346 33.020595,56.2242563 C33.9588101,58.0549199 34.9427918,59.8855835 36.0183066,61.7162471 C37.0938215,63.5469108 38.1922197,65.3318078 39.3135011,67.0709382 Z M56.2242563,19.4508009 C58.3524027,21.6475973 60.4805492,24.0961098 62.5858124,26.7734554 C60.5263158,26.6819222 58.4210526,26.6132723 56.2929062,26.6132723 C54.1418764,26.6132723 52.01373,26.6590389 49.9313501,26.7734554 C51.9908467,24.0961098 54.1189931,21.6475973 56.2242563,19.4508009 Z M39.2906178,32.9290618 C38.1693364,34.6910755 37.0480549,36.4988558 35.9954233,38.3524027 C34.9427918,40.1830664 33.9588101,42.01373 33.020595,43.8443936 C31.784897,40.778032 30.7322654,37.7116705 29.8627002,34.7368421 C32.8604119,34.02746 36.0183066,33.409611 39.2906178,32.9290618 Z M18.5812357,61.5789474 C10.4805492,58.1235698 5.2402746,53.5926773 5.2402746,50 C5.2402746,46.4073227 10.4805492,41.8535469 18.5812357,38.4210526 C20.5491991,37.5743707 22.7002288,36.819222 24.9199085,36.1098398 C26.2242563,40.5949657 27.9405034,45.2631579 30.0686499,50.0457666 C27.9633867,54.805492 26.2700229,59.4508009 24.9885584,63.9130435 C22.7231121,63.2036613 20.5720824,62.4256293 18.5812357,61.5789474 Z M30.8924485,94.2791762 C27.7803204,92.4942792 26.4302059,85.6979405 27.4828375,76.9565217 C27.7345538,74.805492 28.1464531,72.5400458 28.6498856,70.228833 C33.1350114,71.3272311 38.0320366,72.173913 43.180778,72.7231121 C46.2700229,76.9565217 49.4736842,80.8009153 52.7002288,84.1647597 C45.2402746,91.0983982 38.2379863,94.8970252 33.4782609,94.8970252 C32.4485126,94.8741419 31.5789474,94.6681922 30.8924485,94.2791762 Z M85.1716247,76.8421053 C86.2471396,85.583524 84.9199085,92.3798627 81.8306636,94.187643 C81.1441648,94.5995423 80.2517162,94.7826087 79.1990847,94.7826087 C74.4622426,94.7826087 67.4370709,91.006865 59.9771167,84.1189931 C63.180778,80.7551487 66.3844394,76.9336384 69.4279176,72.7002288 C74.5995423,72.1510297 79.4965675,71.3043478 83.9816934,70.1830664 C84.5080092,72.4942792 84.9199085,74.7139588 85.1716247,76.8421053 Z M93.9816934,61.5789474 C92.01373,62.4256293 89.8627002,63.180778 87.6430206,63.8901602 C86.3386728,59.4050343 84.6224256,54.7368421 82.4942792,49.9542334 C84.5995423,45.194508 86.2929062,40.5491991 87.5743707,36.0869565 C89.8398169,36.7963387 91.9908467,37.5743707 94.0045767,38.4210526 C102.105263,41.8764302 107.345538,46.4073227 107.345538,50 C107.322654,53.5926773 102.08238,58.1464531 93.9816934,61.5789474 Z" id="Shape"></path>
            <circle id="Oval" cx="56.2700229" cy="50" r="10.4576659"></circle>
        </g>
    </g>
</svg>