<?xml version="1.0" encoding="UTF-8"?>
<svg width="134px" height="100px" viewBox="0 0 134 100" version="1.1" xmlns="http://www.w3.org/2000/svg" xmlns:xlink="http://www.w3.org/1999/xlink">
    <!-- Generator: Sketch 54.1 (76490) - https://sketchapp.com -->
    <title>sass</title>
    <desc>Created with Sketch.</desc>
    <g id="Page-1" stroke="none" stroke-width="1" fill="none" fill-rule="evenodd">
        <g id="sass" fill="#CD6799" fill-rule="nonzero">
            <path d="M114.660194,57.5242718 C110.024272,57.5485437 105.995146,58.6650485 102.621359,60.315534 C101.383495,57.8640777 100.145631,55.6796117 99.9271845,54.0776699 C99.684466,52.2087379 99.3932039,51.0679612 99.684466,48.8349515 C99.9757282,46.6019417 101.286408,43.4223301 101.262136,43.1796117 C101.237864,42.9368932 100.970874,41.7961165 98.3009709,41.7718447 C95.631068,41.7475728 93.3252427,42.2815534 93.0582524,42.9854369 C92.7912621,43.6893204 92.2815534,45.2912621 91.9417476,46.9417476 C91.4805825,49.368932 86.6019417,58.0339806 83.8106796,62.5728155 C82.9126214,60.8009709 82.1359223,59.2475728 81.9660194,58.0097087 C81.723301,56.1407767 81.4320388,55 81.723301,52.7669903 C82.0145631,50.5339806 83.3252427,47.3543689 83.3009709,47.1116505 C83.276699,46.868932 83.0097087,45.7281553 80.3398058,45.7038835 C77.6699029,45.6796117 75.3640777,46.2135922 75.0970874,46.9174757 C74.8300971,47.6213592 74.538835,49.2718447 73.9805825,50.8737864 C73.4223301,52.4757282 66.9417476,66.9417476 65.2427184,70.6796117 C64.368932,72.5970874 63.6165049,74.1262136 63.0825243,75.1699029 C63.0825243,75.1699029 63.0825243,75.1699029 63.0825243,75.1699029 C63.0825243,75.1699029 63.0582524,75.2427184 62.9854369,75.3640777 C62.5242718,76.2621359 62.2572816,76.7475728 62.2572816,76.7475728 C62.2572816,76.7475728 62.2572816,76.7475728 62.2572816,76.7718447 C61.8932039,77.4271845 61.5048544,78.0339806 61.3106796,78.0339806 C61.1650485,78.0339806 60.8980583,76.2864078 61.3592233,73.907767 C62.3300971,68.8834951 64.6359223,61.0679612 64.6116505,60.8009709 C64.6116505,60.6553398 65.0485437,59.2961165 63.1067961,58.592233 C61.2135922,57.8883495 60.5339806,59.0533981 60.3640777,59.0533981 C60.1941748,59.0533981 60.0728155,59.4660194 60.0728155,59.4660194 C60.0728155,59.4660194 62.184466,50.6796117 56.0436893,50.6796117 C52.2087379,50.6796117 46.9174757,54.8786408 44.2961165,58.6650485 C42.6456311,59.5631068 39.1262136,61.4805825 35.3640777,63.5436893 C33.9320388,64.3446602 32.4514563,65.1456311 31.0679612,65.8980583 C30.9708738,65.8009709 30.8737864,65.6796117 30.776699,65.5825243 C23.3495146,57.6456311 9.61165049,52.038835 10.1941748,41.3834951 C10.4126214,37.5 11.7475728,27.3058252 36.5776699,14.9271845 C57.0145631,4.85436893 73.276699,7.64563107 76.092233,13.8349515 C80.1213592,22.6699029 67.3786408,39.0776699 46.2621359,41.4563107 C38.2038835,42.3543689 33.9805825,39.2475728 32.9126214,38.0825243 C31.7961165,36.868932 31.6262136,36.7961165 31.2135922,37.038835 C30.5339806,37.4029126 30.9708738,38.4951456 31.2135922,39.1262136 C31.8446602,40.776699 34.4417476,43.6893204 38.8349515,45.1213592 C42.7184466,46.3834951 52.1601942,47.0873786 63.592233,42.6699029 C76.3834951,37.7184466 86.3834951,23.9563107 83.4466019,12.4271845 C80.5097087,0.72815534 61.092233,-3.13106796 42.7184466,3.39805825 C31.7961165,7.2815534 19.9514563,13.3980583 11.4320388,21.3592233 C1.31067961,30.8252427 -0.291262136,39.0533981 0.36407767,42.5 C2.7184466,54.7330097 19.5873786,62.6941748 26.3349515,68.592233 C25.9951456,68.7864078 25.6796117,68.9563107 25.4126214,69.1019417 C22.038835,70.776699 9.17475728,77.5 5.97087379,84.6116505 C2.33009709,92.6699029 6.55339806,98.4466019 9.34466019,99.223301 C18.0097087,101.626214 26.9174757,97.3058252 31.6990291,90.1699029 C36.4805825,83.0339806 35.8980583,73.7621359 33.6893204,69.5145631 C33.6650485,69.4660194 33.6407767,69.4174757 33.592233,69.368932 C34.4660194,68.8592233 35.3640777,68.3252427 36.2378641,67.815534 C37.961165,66.7961165 39.6601942,65.8495146 41.1165049,65.0728155 C40.2912621,67.3300971 39.684466,70.0242718 39.3932039,73.907767 C39.0291262,78.4708738 40.8980583,84.3932039 43.3495146,86.723301 C44.4417476,87.7427184 45.7281553,87.7669903 46.5533981,87.7669903 C49.4174757,87.7669903 50.7038835,85.3883495 52.1359223,82.5728155 C53.8834951,79.1262136 55.461165,75.1213592 55.461165,75.1213592 C55.461165,75.1213592 53.4951456,85.9466019 58.8349515,85.9466019 C60.776699,85.9466019 62.7427184,83.4223301 63.6165049,82.1359223 C63.6165049,82.1601942 63.6165049,82.1601942 63.6165049,82.1601942 C63.6165049,82.1601942 63.6650485,82.0873786 63.7621359,81.9174757 C63.9563107,81.6019417 64.0776699,81.407767 64.0776699,81.407767 C64.0776699,81.407767 64.0776699,81.3834951 64.0776699,81.3592233 C64.8543689,80 66.6019417,76.9174757 69.1990291,71.7961165 C72.5485437,65.1941748 75.776699,56.9417476 75.776699,56.9417476 C75.776699,56.9417476 76.0679612,58.9563107 77.0631068,62.3058252 C77.6456311,64.2718447 78.8592233,66.4320388 79.8300971,68.5194175 C79.0533981,69.6116505 78.5679612,70.2184466 78.5679612,70.2184466 C78.5679612,70.2184466 78.5679612,70.2184466 78.592233,70.2427184 C77.961165,71.0679612 77.2815534,71.9660194 76.5291262,72.8398058 C73.8834951,75.9951456 70.7281553,79.6116505 70.2912621,80.6553398 C69.7815534,81.8932039 69.9029126,82.7912621 70.8737864,83.5194175 C71.5776699,84.0533981 72.8398058,84.1262136 74.1262136,84.0533981 C76.5048544,83.8834951 78.1796117,83.3009709 79.0048544,82.9368932 C80.2912621,82.4757282 81.7961165,81.7718447 83.2038835,80.7281553 C85.8009709,78.8106796 87.3786408,76.0679612 87.2330097,72.4514563 C87.1601942,70.461165 86.5048544,68.4708738 85.7038835,66.6019417 C85.9466019,66.2621359 86.1650485,65.9223301 86.407767,65.5825243 C90.5097087,59.5873786 93.6893204,53.0097087 93.6893204,53.0097087 C93.6893204,53.0097087 93.9805825,55.0242718 94.9757282,58.3737864 C95.461165,60.0728155 96.4563107,61.9174757 97.3300971,63.7135922 C93.4708738,66.8446602 91.092233,70.4854369 90.2427184,72.8640777 C88.7135922,77.2815534 89.9029126,79.2718447 92.1601942,79.7330097 C93.1796117,79.9514563 94.6359223,79.4660194 95.7038835,79.0048544 C97.0631068,78.5679612 98.6650485,77.815534 100.194175,76.6990291 C102.791262,74.7815534 105.291262,72.1116505 105.145631,68.4951456 C105.072816,66.8446602 104.635922,65.2184466 104.029126,63.6407767 C107.305825,62.2815534 111.529126,61.5291262 116.917476,62.1601942 C128.470874,63.5194175 130.752427,70.7281553 130.315534,73.7621359 C129.878641,76.7961165 127.451456,78.4466019 126.650485,78.9563107 C125.849515,79.4660194 125.582524,79.6359223 125.65534,80 C125.752427,80.5339806 126.140777,80.5097087 126.820388,80.4126214 C127.76699,80.2427184 132.88835,77.961165 133.106796,72.3786408 C133.470874,65.2427184 126.674757,57.4514563 114.660194,57.5242718 Z M25.5339806,87.5728155 C21.6990291,91.7475728 16.3592233,93.3252427 14.0533981,91.9902913 C11.5776699,90.5582524 12.5485437,84.3932039 17.2572816,79.9757282 C20.1213592,77.2815534 23.8106796,74.7815534 26.2621359,73.2524272 C26.8203883,72.9126214 27.6456311,72.4271845 28.6407767,71.8203883 C28.8106796,71.723301 28.907767,71.6747573 28.907767,71.6747573 L28.907767,71.6747573 C29.1019417,71.5533981 29.2961165,71.4320388 29.4902913,71.3106796 C31.2135922,77.6213592 29.5631068,83.1796117 25.5339806,87.5728155 Z M53.4466019,68.592233 C52.1116505,71.8446602 49.3203883,80.1699029 47.6213592,79.7087379 C46.1650485,79.3203883 45.2669903,73.0097087 47.3300971,66.7718447 C48.3737864,63.6407767 50.5825243,59.9029126 51.868932,58.4466019 C53.9563107,56.1165049 56.2621359,55.3398058 56.8203883,56.2864078 C57.5242718,57.5242718 54.2718447,66.5533981 53.4466019,68.592233 Z M76.4805825,79.6116505 C75.9223301,79.9029126 75.3883495,80.0970874 75.1456311,79.9514563 C74.9757282,79.8543689 75.3883495,79.4660194 75.3883495,79.4660194 C75.3883495,79.4660194 78.276699,76.3592233 79.4174757,74.9514563 C80.0728155,74.1262136 80.8495146,73.1553398 81.6747573,72.0631068 C81.6747573,72.1601942 81.6747573,72.2815534 81.6747573,72.3786408 C81.6747573,76.092233 78.0825243,78.592233 76.4805825,79.6116505 Z M94.2475728,75.5582524 C93.8349515,75.2669903 93.907767,74.2961165 95.2912621,71.2621359 C95.8252427,70.0728155 97.0873786,68.0825243 99.2475728,66.1650485 C99.4902913,66.9417476 99.6601942,67.6941748 99.6359223,68.3980583 C99.6116505,73.0825243 96.2621359,74.8300971 94.2475728,75.5582524 Z" id="Shape"></path>
        </g>
    </g>
</svg>