<?xml version="1.0" encoding="UTF-8"?>
<svg width="34px" height="20px" viewBox="0 0 34 20" version="1.1" xmlns="http://www.w3.org/2000/svg" xmlns:xlink="http://www.w3.org/1999/xlink">
    <title>tailwind</title>
    <g id="Page-1" stroke="none" stroke-width="1" fill="none" fill-rule="evenodd">
        <g id="tailwind" fill="#06B6D4" fill-rule="nonzero">
            <path d="M16.5333333,0 C12.1333333,0 9.36,2.21333333 8.26666667,6.61333333 C9.92,4.4 11.84,3.57333333 14.0533333,4.13333333 C15.3066667,4.45333333 16.2133333,5.36 17.2,6.37333333 C18.8266667,8.02666667 20.6933333,9.92 24.8,9.92 C29.2,9.92 31.9733333,7.70666667 33.0666667,3.30666667 C31.4133333,5.52 29.4933333,6.34666667 27.28,5.78666667 C26.0266667,5.46666667 25.12,4.56 24.1333333,3.54666667 C22.5066667,1.89333333 20.64,0 16.5333333,0 L16.5333333,0 Z M8.26666667,9.89333333 C3.86666667,9.89333333 1.09333333,12.1066667 0,16.5066667 C1.65333333,14.2933333 3.57333333,13.4666667 5.78666667,14.0266667 C7.04,14.3466667 7.94666667,15.2533333 8.93333333,16.2666667 C10.56,17.92 12.4266667,19.8133333 16.5333333,19.8133333 C20.9333333,19.8133333 23.7066667,17.6 24.8,13.2 C23.1466667,15.4133333 21.2266667,16.24 19.0133333,15.68 C17.76,15.36 16.8533333,14.4533333 15.8666667,13.44 C14.24,11.8133333 12.3733333,9.89333333 8.26666667,9.89333333 L8.26666667,9.89333333 Z" id="Shape"></path>
        </g>
    </g>
</svg>